<svg width="288" height="250" viewBox="0 0 288 250" fill="none" xmlns="http://www.w3.org/2000/svg">
<path d="M0.666667 244C0.666667 246.946 3.05448 249.333 6 249.333C8.94552 249.333 11.3333 246.946 11.3333 244C11.3333 241.054 8.94552 238.667 6 238.667C3.05448 238.667 0.666667 241.054 0.666667 244ZM58.9763 167.226L58.9149 166.228L58.9763 167.226ZM276.667 6C276.667 8.94552 279.054 11.3333 282 11.3333C284.945 11.3333 287.333 8.94552 287.333 6C287.333 3.05448 284.945 0.666667 282 0.666667C279.054 0.666667 276.667 3.05448 276.667 6ZM6.9477 244.319C11.9662 229.417 18.3813 210.731 26.9174 195.564C35.4928 180.328 45.9956 169.027 59.0378 168.224L58.9149 166.228C44.7494 167.1 33.7783 179.296 25.1745 194.583C16.5315 209.94 10.0622 228.804 5.0523 243.681L6.9477 244.319ZM59.0378 168.224C75.7945 167.192 88.6098 173.365 102.076 177.773C115.534 182.178 129.398 184.684 147.707 175.803L146.834 174.003C129.171 182.571 115.893 180.191 102.699 175.872C89.5134 171.556 76.1676 165.166 58.9149 166.228L59.0378 168.224ZM147.707 175.803C166.192 166.836 170.335 148.522 173.513 132.259C175.119 124.045 176.467 116.403 179.175 110.44C181.85 104.553 185.795 100.429 192.589 99.1107L192.208 97.1473C184.613 98.621 180.219 103.309 177.354 109.613C174.524 115.843 173.134 123.774 171.551 131.875C168.352 148.241 164.32 165.522 146.834 174.003L147.707 175.803ZM192.589 99.1107C207.42 96.2329 214.999 85.9291 220.684 76.3547C223.558 71.5145 225.889 66.9742 228.474 63.4415C231.042 59.9309 233.678 57.6871 237.004 57.2434L236.74 55.261C232.595 55.8138 229.534 58.6049 226.86 62.2606C224.201 65.8942 221.744 70.6517 218.964 75.3336C213.341 84.8034 206.153 94.4415 192.208 97.1473L192.589 99.1107ZM237.004 57.2434C242.526 56.5068 247.63 53.3457 252.268 49.0346C256.914 44.7173 261.173 39.1715 265.005 33.5194C268.837 27.8678 272.276 22.0559 275.249 17.222C278.259 12.327 280.731 8.53912 282.68 6.73346L281.32 5.26654C279.126 7.29959 276.503 11.3636 273.545 16.1744C270.549 21.0463 267.149 26.7942 263.35 32.397C259.552 37.9993 255.391 43.4025 250.907 47.5696C246.416 51.743 241.682 54.6017 236.74 55.261L237.004 57.2434Z" fill="#0062F5"/>
</svg>
